<svg xmlns="http://www.w3.org/2000/svg" xmlns:xlink="http://www.w3.org/1999/xlink" width="64" zoomAndPan="magnify" viewBox="0 0 48 44.999999" height="60" preserveAspectRatio="xMidYMid meet" version="1.0"><defs><filter x="0%" y="0%" width="100%" height="100%" id="ac8e5cabef"><feColorMatrix values="0 0 0 0 1 0 0 0 0 1 0 0 0 0 1 0 0 0 1 0" color-interpolation-filters="sRGB"/></filter><clipPath id="a9656e0724"><path d="M 0 3.539062 L 21 3.539062 L 21 41.789062 L 0 41.789062 Z M 0 3.539062 " clip-rule="nonzero"/></clipPath><mask id="d7e0f560c0"><g filter="url(#ac8e5cabef)"><rect x="-4.8" width="57.6" fill="#000000" y="-4.5" height="53.999999" fill-opacity="0.5"/></g></mask><clipPath id="f818ec7795"><path d="M 0.773438 0.539062 L 21.773438 0.539062 L 21.773438 38.761719 L 0.773438 38.761719 Z M 0.773438 0.539062 " clip-rule="nonzero"/></clipPath><clipPath id="f1613c4822"><rect x="0" width="22" y="0" height="39"/></clipPath></defs><g clip-path="url(#a9656e0724)"><path fill="#00b37e" d="M 0.0351562 24.722656 C 0.0351562 10.777344 7.273438 3.539062 21.21875 3.539062 L 21.21875 13.582031 C 15.636719 13.582031 11.96875 15.929688 10.628906 20.265625 L 21.21875 20.265625 L 21.21875 41.449219 L 0.0351562 41.449219 Z M 26.78125 24.722656 C 26.78125 10.777344 34.039062 3.539062 47.964844 3.539062 L 47.964844 13.582031 C 42.378906 13.582031 38.714844 15.929688 37.371094 20.265625 L 47.964844 20.265625 L 47.964844 41.449219 L 26.78125 41.449219 Z M 26.78125 24.722656 " fill-opacity="1" fill-rule="nonzero"/></g><g mask="url(#d7e0f560c0)"><g transform="matrix(1, 0, 0, 1, 26, 3)"><g clip-path="url(#f1613c4822)"><g clip-path="url(#f818ec7795)"><path fill="#00b37e" d="M 0.8125 21.722656 C 0.8125 7.777344 8.046875 0.539062 21.996094 0.539062 L 21.996094 10.582031 C 16.410156 10.582031 12.746094 12.929688 11.402344 17.265625 L 21.996094 17.265625 L 21.996094 38.449219 L 0.8125 38.449219 Z M 27.554688 21.722656 C 27.554688 7.777344 34.816406 0.539062 48.738281 0.539062 L 48.738281 10.582031 C 43.15625 10.582031 39.488281 12.929688 38.148438 17.265625 L 48.738281 17.265625 L 48.738281 38.449219 L 27.554688 38.449219 Z M 27.554688 21.722656 " fill-opacity="1" fill-rule="nonzero"/></g></g></g></g></svg>